<?xml version="1.0" encoding="UTF-8" standalone="no"?>
<svg
   xmlns="http://www.w3.org/2000/svg"
   fill="#000000"
   viewBox="0 0 20 20"
   width="20"
   height="20"
   version="1.1"
   id="svg4">
  <path
     d="M 6,1 C 3.239,1 1,3.239 1,6 v 8 c 0,2.761 2.239,5 5,5 h 8 c 2.761,0 5,-2.239 5,-5 V 6 C 19,3.239 16.761,1 14,1 Z m 10,2 c 0.552,0 1,0.448 1,1 0,0.552 -0.448,1 -1,1 -0.552,0 -1,-0.448 -1,-1 0,-0.552 0.448,-1 1,-1 z m -6,2 c 2.761,0 5,2.239 5,5 0,2.761 -2.239,5 -5,5 C 7.239,15 5,12.761 5,10 5,7.239 7.239,5 10,5 Z m 0,2 a 3,3 0 0 0 -3,3 3,3 0 0 0 3,3 3,3 0 0 0 3,-3 3,3 0 0 0 -3,-3 z" />
</svg>
