<?xml version="1.0" standalone="no"?>
<!DOCTYPE svg PUBLIC "-//W3C//DTD SVG 20010904//EN"
 "http://www.w3.org/TR/2001/REC-SVG-20010904/DTD/svg10.dtd">
<svg version="1.0" xmlns="http://www.w3.org/2000/svg"
 width="700.000000pt" height="700.000000pt" viewBox="0 0 700.000000 700.000000"
 preserveAspectRatio="xMidYMid meet">
<metadata>
Created by potrace 1.14, written by Peter Selinger 2001-2017
</metadata>
<g transform="translate(0.000000,700.000000) scale(0.100000,-0.100000)"
fill="#000000" stroke="none">
<path d="M3558 6613 l-98 -4 0 -47 -1 -47 -26 44 -26 43 -113 -4 c-62 -1 -116
-6 -120 -11 -4 -4 -3 -28 2 -55 7 -37 14 -48 30 -50 30 -4 34 -26 34 -179 0
-129 0 -132 -22 -135 -21 -3 -23 -9 -23 -58 0 -51 2 -55 23 -54 12 0 65 1 117
2 l95 2 0 55 c0 50 -2 55 -25 61 -24 6 -25 10 -25 75 0 38 2 69 4 69 2 0 35
-56 72 -125 l67 -125 69 0 70 0 -7 214 -8 214 24 4 c22 3 24 9 27 61 3 54 2
57 -20 55 -13 -1 -67 -4 -120 -5z m102 -47 c0 -1 -14 -17 -31 -35 l-30 -32 6
-107 c3 -59 8 -144 11 -189 l5 -83 -38 0 -38 0 -91 168 c-52 96 -96 167 -105
167 -11 0 -15 -27 -17 -142 -2 -129 -1 -144 16 -161 11 -11 25 -21 33 -24 7
-2 9 -10 5 -16 -11 -18 -146 -16 -146 2 0 8 9 17 19 21 30 9 33 33 25 202 l-7
157 -30 27 -30 27 55 7 c106 13 103 15 183 -130 53 -99 75 -130 90 -130 14 0
20 7 19 23 0 12 -1 60 -2 107 -2 84 -3 86 -32 103 -34 19 -37 29 -12 35 21 6
142 8 142 3z m-142 -81 c2 -2 2 -23 0 -46 l-3 -44 -22 53 -22 53 22 -7 c12 -3
23 -8 25 -9z"/>
<path d="M2773 6511 c-127 -43 -185 -129 -184 -268 1 -118 65 -216 168 -260
58 -24 183 -14 249 20 137 70 187 219 123 367 -58 133 -208 193 -356 141z
m180 -32 c84 -23 146 -110 155 -216 11 -141 -74 -233 -229 -250 -68 -7 -118 8
-165 50 -94 81 -111 236 -37 335 53 71 179 108 276 81z"/>
<path d="M2792 6430 c-51 -31 -72 -75 -72 -150 1 -97 44 -180 112 -216 36 -19
65 -17 115 5 54 25 76 67 76 146 0 98 -50 192 -120 221 -44 19 -72 17 -111 -6z
m108 -40 c11 -6 32 -31 46 -57 22 -37 28 -59 28 -114 1 -58 -2 -71 -23 -93
-36 -39 -93 -36 -132 5 -61 65 -73 196 -23 246 25 25 71 31 104 13z"/>
<path d="M2335 6342 c-66 -31 -122 -57 -124 -59 -4 -3 28 -83 39 -96 4 -4 18
-3 32 2 26 10 27 8 87 -124 34 -74 61 -137 61 -140 0 -4 -10 -15 -21 -24 l-21
-17 22 -45 c12 -24 23 -45 25 -47 1 -1 59 25 129 57 l127 60 -26 50 c-23 47
-27 50 -50 41 -25 -10 -27 -7 -91 128 l-65 137 25 19 25 19 -25 49 c-13 26
-25 48 -27 47 -1 0 -56 -26 -122 -57z m109 -11 c3 -5 -1 -14 -9 -21 -26 -22
-16 -61 53 -210 63 -135 70 -145 98 -148 58 -7 48 -21 -40 -63 -87 -40 -111
-44 -88 -11 25 35 24 46 -22 145 -97 210 -98 212 -133 215 -52 5 -38 24 45 64
86 41 89 42 96 29z"/>
<path d="M2079 6232 c-13 -9 -30 -24 -37 -34 -19 -27 -188 -138 -209 -138 -10
0 -30 -10 -45 -23 l-27 -22 27 -103 27 -103 35 6 c71 12 70 12 70 73 0 100 10
96 99 -36 45 -67 81 -125 81 -128 0 -4 -7 -16 -17 -26 -17 -19 -13 -36 25 -85
l17 -23 117 78 117 78 -30 46 c-29 44 -32 46 -56 35 -23 -10 -28 -8 -47 15
-27 35 -123 188 -132 211 -9 23 16 22 74 -4 l46 -21 24 28 c47 58 48 55 -47
126 -86 65 -89 66 -112 50z m108 -104 c33 -35 24 -45 -26 -30 -73 22 -131 11
-131 -24 0 -7 44 -78 97 -159 95 -145 97 -147 130 -143 53 6 40 -15 -44 -70
-79 -52 -106 -58 -79 -16 9 13 16 29 16 35 0 7 -43 77 -95 156 -79 119 -99
144 -117 141 -32 -5 -58 -47 -65 -106 -3 -30 -10 -51 -16 -49 -6 2 -19 33 -28
69 l-16 67 31 13 c40 16 227 140 245 161 12 16 15 16 43 -1 16 -9 41 -29 55
-44z"/>
<path d="M4569 5941 c-20 -20 -29 -39 -29 -61 0 -44 47 -90 92 -90 58 0 107
45 108 98 0 80 -110 114 -171 53z m101 -30 c16 -30 12 -59 -9 -71 -25 -13 -27
-13 -45 6 -16 15 -22 65 -9 77 13 14 53 6 63 -12z"/>
<path d="M1593 5851 l-83 -87 35 -34 c31 -30 38 -33 55 -22 11 6 23 12 28 12
17 0 182 -191 182 -211 0 -25 -43 -69 -68 -69 -11 0 -62 42 -117 96 -91 89
-96 96 -81 113 23 25 21 33 -18 70 l-35 34 -100 -93 c-56 -51 -101 -96 -101
-99 0 -4 17 -24 38 -44 36 -35 39 -36 60 -21 23 16 26 14 131 -89 117 -114
138 -124 228 -114 85 9 178 105 190 196 10 70 -19 124 -123 231 -90 93 -93 97
-78 119 15 20 14 24 -18 61 -18 21 -35 38 -38 38 -3 0 -42 -40 -87 -87z m91
-17 c-6 -34 -3 -39 78 -122 123 -126 147 -172 128 -243 -12 -45 -94 -124 -139
-134 -70 -15 -97 0 -218 118 -111 108 -115 111 -143 100 -16 -6 -31 -8 -35 -5
-6 6 125 142 137 142 5 0 5 -17 2 -39 -6 -37 -4 -41 67 -116 137 -145 190
-166 255 -101 28 28 34 42 34 75 0 38 -7 50 -82 133 -109 120 -130 135 -163
120 -17 -8 -25 -8 -25 -1 0 17 92 119 102 113 5 -3 6 -21 2 -40z"/>
<path d="M3367 5869 c-197 -22 -404 -90 -633 -209 -267 -139 -431 -256 -620
-444 -197 -197 -328 -384 -480 -687 -155 -311 -252 -612 -344 -1064 -48 -239
-105 -637 -96 -662 7 -17 8 -17 23 2 39 52 91 176 157 379 249 754 468 1237
608 1339 37 28 108 28 145 1 66 -49 79 -136 35 -246 -33 -82 -49 -162 -35
-171 5 -3 41 26 79 64 75 77 109 99 149 99 29 0 85 -26 85 -39 0 -4 -26 -25
-57 -46 -74 -49 -178 -153 -230 -230 -80 -119 -121 -224 -97 -248 4 -3 39 26
78 66 66 67 159 137 203 154 10 4 -15 -29 -55 -73 -141 -153 -313 -440 -298
-499 7 -27 7 -27 28 -9 11 11 60 71 109 135 92 122 152 180 258 248 63 40 104
51 116 31 3 -6 -31 -47 -75 -92 -164 -165 -297 -369 -385 -591 -44 -111 -52
-157 -30 -163 6 -2 30 31 55 73 110 187 289 395 371 433 46 20 129 27 129 10
0 -5 -32 -49 -71 -97 -105 -132 -247 -346 -296 -449 -47 -100 -85 -230 -76
-263 7 -29 16 -21 59 57 122 219 304 441 400 487 55 26 57 14 8 -48 -128 -164
-244 -368 -318 -560 -42 -107 -58 -187 -38 -187 4 0 78 104 166 231 209 304
275 379 334 379 21 0 17 -7 -36 -67 -147 -168 -236 -341 -293 -573 -32 -127
-37 -190 -16 -190 16 0 21 11 92 183 92 223 197 367 317 437 78 44 89 37 31
-22 -130 -134 -177 -256 -222 -578 -19 -135 -19 -190 -1 -190 15 0 59 119 93
251 40 155 70 221 130 286 45 49 125 93 170 93 l27 0 -40 -51 c-97 -123 -176
-369 -211 -656 -10 -82 -10 -105 1 -118 7 -8 16 -13 20 -10 4 3 18 46 30 97
71 294 191 518 278 518 17 0 33 -3 36 -8 2 -4 -11 -32 -29 -62 -102 -167 -127
-397 -76 -703 32 -197 46 -163 57 148 5 134 11 196 26 243 10 34 21 62 24 62
3 0 3 -8 0 -18 -12 -36 15 -129 68 -232 29 -58 61 -129 71 -158 9 -28 21 -50
26 -46 5 3 9 45 9 95 0 117 20 119 56 6 10 -31 23 -56 28 -54 6 2 13 24 16 50
3 25 8 49 11 52 14 13 29 -217 35 -525 3 -184 9 -396 13 -470 8 -132 7 -136
-17 -172 -34 -52 -69 -73 -127 -74 -27 -1 -56 -2 -62 -3 -7 0 -13 -12 -13 -26
0 -19 8 -28 28 -36 40 -15 91 3 149 55 l48 43 3 -216 c3 -240 10 -341 24 -341
5 0 6 117 2 298 -7 288 -6 298 13 315 20 17 20 16 15 -298 -3 -205 -1 -315 5
-315 14 0 24 218 23 463 l-2 199 36 54 36 54 95 0 95 0 0 -25 c0 -14 -7 -55
-16 -91 -9 -36 -14 -67 -12 -70 3 -2 49 -5 103 -7 71 -1 99 1 102 11 3 8 -8
12 -39 12 -78 0 -76 -17 -31 327 22 169 39 309 38 310 -1 2 -55 -4 -121 -13
-138 -18 -186 -36 -231 -88 l-33 -37 0 73 c2 196 19 598 26 610 6 8 13 -7 20
-47 l11 -60 37 80 c45 95 54 88 55 -45 1 -46 5 -80 9 -75 5 6 19 39 31 75 13
36 37 89 53 119 42 75 59 126 67 196 l7 60 23 -70 c19 -60 24 -103 31 -294 8
-197 17 -258 34 -240 15 14 48 301 48 414 0 167 -19 262 -77 382 -25 50 -45
94 -45 97 0 3 14 6 32 6 82 0 206 -230 273 -507 15 -62 31 -113 36 -113 24 0
30 44 19 133 -38 302 -122 564 -217 677 l-25 30 27 0 c70 0 183 -98 234 -203
17 -34 47 -128 67 -208 34 -141 62 -209 84 -209 16 0 12 85 -11 242 -35 247
-79 367 -181 495 -54 68 -52 77 8 37 124 -82 212 -206 304 -424 77 -184 83
-195 100 -185 17 10 8 92 -24 217 -49 192 -133 362 -259 518 -37 47 -63 86
-57 88 42 14 185 -158 389 -466 51 -78 98 -139 102 -136 17 10 9 63 -22 151
-66 187 -172 384 -297 553 -39 52 -69 96 -67 98 2 2 22 -6 46 -18 85 -44 268
-265 375 -455 32 -57 62 -101 66 -99 16 10 7 72 -23 169 -53 169 -103 255
-303 524 l-106 141 42 0 c60 0 123 -34 195 -106 73 -74 192 -231 260 -344 26
-44 51 -80 55 -80 36 0 -7 151 -94 324 -87 175 -174 299 -315 447 l-85 89 32
0 c22 0 55 -16 108 -52 98 -69 149 -119 252 -252 47 -61 91 -117 97 -125 11
-14 14 -14 23 -1 19 29 10 62 -49 170 -88 160 -128 219 -257 378 l-26 33 32
-20 c52 -31 156 -121 190 -163 17 -21 35 -36 41 -33 30 19 -16 151 -94 264
-47 68 -156 179 -224 228 -35 25 -63 46 -63 49 0 11 64 34 96 34 33 0 45 -9
122 -87 79 -82 86 -87 94 -67 11 24 -10 112 -43 176 -35 69 -20 179 32 222 25
21 41 26 85 26 48 0 58 -4 93 -36 46 -41 146 -209 230 -386 90 -189 200 -474
320 -831 98 -290 173 -475 200 -491 21 -14 20 40 -4 205 -124 836 -317 1413
-630 1884 -235 352 -504 579 -954 805 -302 151 -592 210 -874 179z m368 -84
c148 -24 315 -76 427 -131 133 -67 94 -153 -115 -253 -58 -28 -114 -62 -125
-75 l-19 -25 -7 77 c-11 118 -52 171 -166 217 -59 23 -266 33 -360 16 -148
-27 -219 -101 -228 -238 l-5 -74 -28 31 c-16 17 -59 44 -96 61 -163 73 -232
134 -212 188 18 46 49 69 153 110 210 83 337 109 546 110 85 1 182 -5 235 -14z
m-963 -210 c-7 -38 16 -82 57 -107 20 -13 86 -48 146 -79 91 -47 114 -63 132
-95 27 -47 29 -63 6 -70 -62 -21 -147 -67 -183 -100 -57 -51 -133 -168 -160
-246 -59 -174 -22 -349 88 -405 l42 -21 -37 -6 c-23 -4 -103 4 -198 20 -233
38 -306 41 -382 15 -34 -12 -64 -21 -67 -21 -2 0 -12 22 -21 50 -24 72 -62
100 -133 100 -74 0 -108 -21 -172 -107 -66 -89 -221 -398 -298 -593 -33 -85
-111 -303 -172 -485 -117 -351 -182 -524 -188 -506 -9 28 81 523 134 736 99
396 219 711 374 981 204 354 437 612 715 789 65 42 306 175 316 175 3 0 4 -11
1 -25z m968 -1 c55 -25 105 -80 119 -131 14 -51 14 -116 -1 -131 -9 -9 -9 -12
0 -12 9 0 12 -29 12 -100 l0 -100 -27 -6 c-48 -10 -49 -12 -7 -13 l41 -1 7
-52 c3 -29 6 -88 6 -131 0 -65 -3 -79 -17 -84 -15 -6 -14 -8 7 -13 46 -11 71
-134 54 -264 l-7 -46 -415 0 -414 0 4 123 c3 105 7 129 26 161 18 30 22 53 22
119 0 45 3 106 7 136 l6 53 58 -5 c32 -3 72 -12 90 -21 18 -9 34 -14 37 -11
11 11 -87 45 -130 45 l-48 0 0 105 c0 75 3 105 12 105 9 0 9 3 0 12 -15 15
-16 90 -2 139 17 62 84 116 175 140 17 4 100 7 185 6 132 -2 162 -6 200 -23z
m658 -46 c344 -194 528 -349 722 -613 291 -395 484 -866 604 -1475 44 -223 89
-510 82 -517 -10 -10 -46 86 -166 442 -165 490 -267 739 -398 974 -131 237
-170 276 -268 276 -45 0 -57 -5 -83 -29 -17 -16 -38 -50 -48 -75 -9 -25 -17
-47 -19 -49 -1 -2 -29 6 -63 18 -82 27 -144 26 -371 -12 -132 -21 -205 -29
-225 -23 l-30 8 25 11 c54 24 81 50 107 104 25 51 28 67 27 152 -1 77 -6 108
-28 164 -32 84 -102 191 -157 241 -39 35 -150 95 -177 95 -23 0 -24 27 -3 69
22 43 36 53 116 86 70 29 190 109 211 140 11 16 14 35 10 55 -3 17 -3 30 0 30
2 0 62 -32 132 -72z m-1268 -350 c0 -14 -19 -39 -52 -68 -115 -101 -153 -146
-197 -233 -34 -66 -46 -102 -49 -146 -6 -81 9 -117 74 -184 57 -59 61 -77 17
-77 -47 0 -90 37 -124 106 -27 55 -32 75 -31 137 2 181 123 381 276 457 71 36
86 37 86 8z m877 -9 c91 -44 197 -183 238 -312 51 -160 23 -299 -74 -364 -29
-20 -91 -32 -91 -18 0 18 27 55 50 68 43 26 71 79 77 145 10 115 -80 282 -211
390 -46 38 -77 72 -85 92 l-11 32 32 -6 c18 -4 52 -16 75 -27z m-882 -201 c-5
-107 -12 -156 -27 -193 -16 -40 -21 -79 -25 -195 -5 -204 -6 -207 -51 -219
-20 -5 -66 -12 -102 -16 -36 -4 -130 -17 -209 -31 -180 -30 -213 -30 -279 1
-88 41 -123 34 -204 -43 l-37 -35 15 48 c7 27 14 70 14 96 0 46 1 48 46 70 81
39 111 38 434 -10 110 -17 146 -19 200 -10 36 5 71 16 78 23 20 19 0 58 -57
113 -66 64 -80 113 -56 198 20 74 66 161 113 216 31 36 140 129 151 129 2 0 0
-64 -4 -142z m899 48 c94 -94 156 -213 156 -299 0 -75 -18 -117 -68 -157 -50
-40 -72 -85 -51 -105 8 -8 44 -19 81 -24 72 -10 141 -4 303 28 137 27 263 24
326 -7 l46 -23 6 -72 c2 -39 8 -81 12 -92 6 -15 0 -13 -26 11 -80 73 -117 80
-206 38 l-56 -27 -226 31 c-124 17 -252 34 -283 38 -69 8 -66 -2 -77 225 -6
115 -14 177 -26 209 -12 32 -19 86 -23 184 l-5 138 23 -12 c12 -7 55 -44 94
-84z m-84 -580 c0 -13 3 -37 6 -53 5 -28 3 -31 -43 -51 -27 -11 -85 -25 -128
-31 -81 -10 -112 -25 -148 -73 -20 -27 -20 -29 -57 -468 -21 -263 -32 -363
-44 -403 l-13 -42 -6 55 c-19 163 -38 369 -52 560 -9 118 -21 233 -27 254 -15
60 -63 103 -124 111 -123 16 -214 47 -214 74 0 9 3 33 6 54 l7 37 418 0 419 0
0 -24z m-815 -166 c23 -11 77 -27 118 -35 130 -25 173 -53 165 -108 -3 -19
-11 -23 -63 -28 -33 -4 -104 -7 -158 -8 -121 -1 -152 13 -162 70 -7 42 24 129
46 129 7 0 31 -9 54 -20z m871 -31 c20 -40 17 -99 -7 -128 -18 -22 -26 -24
-107 -23 -48 0 -124 4 -169 8 l-83 6 0 33 c0 53 41 79 158 99 43 8 99 23 123
33 49 22 61 18 85 -28z m219 26 c197 -29 297 -63 417 -141 69 -44 165 -134
208 -193 l24 -35 -48 33 c-26 18 -80 62 -119 98 -133 120 -237 167 -443 202
-66 11 -140 29 -164 41 -38 17 -40 19 -15 15 17 -2 80 -11 140 -20z m-1285 1
c-14 -8 -86 -26 -160 -41 -250 -50 -291 -70 -438 -207 -91 -85 -192 -163 -177
-137 5 8 31 43 58 78 86 109 221 207 342 250 52 18 323 68 380 70 17 0 17 -2
-5 -13z m46 -33 c-2 -10 -7 -31 -11 -48 l-6 -30 -147 0 c-113 0 -160 -4 -206
-18 -79 -24 -64 -33 23 -13 130 30 351 20 351 -14 0 -4 -55 -10 -122 -13 -191
-11 -216 -24 -38 -20 151 3 154 3 103 -12 -121 -34 -341 -109 -385 -131 -59
-30 -142 -99 -287 -239 l-115 -110 54 80 c31 45 112 137 187 213 99 99 133
139 133 157 0 31 -5 31 -83 0 l-62 -25 49 46 c28 25 55 43 63 40 8 -3 12 -2 9
3 -6 9 73 50 134 69 19 6 76 18 125 27 50 8 119 24 155 34 82 25 82 25 76 4z
m1126 2 c19 -7 89 -23 155 -34 164 -28 319 -83 291 -104 -9 -6 -7 -7 5 -3 13
4 33 -5 58 -25 22 -17 38 -33 36 -36 -3 -2 -28 6 -58 17 -48 19 -54 20 -65 6
-6 -9 -18 -16 -27 -16 -9 0 29 -41 84 -92 97 -87 239 -241 260 -281 6 -10 -61
42 -149 115 -97 82 -183 145 -223 164 -67 33 -248 92 -358 118 -34 8 -66 18
-70 22 -6 7 197 -1 259 -11 l35 -5 -30 10 c-16 6 -80 14 -141 17 l-112 6 10
29 c6 16 8 49 4 74 -3 24 -4 44 -2 44 2 0 19 -7 38 -15z m-685 -187 c-2 -17
13 -155 19 -190 l6 -28 -151 0 c-82 0 -162 5 -176 10 -41 15 -92 69 -99 102
-3 16 1 44 9 64 l14 34 88 1 c48 1 122 5 163 9 120 11 128 11 127 -2z m576
-20 c23 -27 31 -61 22 -104 -4 -24 -13 -38 -26 -41 -10 -3 -19 -11 -19 -19 0
-27 -41 -34 -204 -34 l-164 0 5 78 c2 42 9 90 14 106 5 15 6 32 3 37 -3 5 70
7 173 3 162 -6 180 -8 196 -26z m-1019 -5 c-5 -16 -9 -51 -9 -79 0 -40 6 -58
28 -87 l28 -37 -68 -1 c-37 -1 -97 -5 -133 -9 -51 -7 -38 -8 55 -4 l120 3 -87
-18 c-201 -44 -337 -120 -484 -273 -56 -57 -217 -242 -287 -328 -28 -34 -28
-34 4 25 91 168 187 293 343 442 64 62 116 115 116 119 0 4 -3 5 -6 1 -3 -3
-27 8 -52 24 -25 16 -54 29 -64 29 -10 0 -18 5 -18 10 0 6 9 10 21 10 11 0 18
4 15 9 -11 17 94 71 216 110 158 51 251 80 262 80 4 1 4 -11 0 -26z m1283 -29
c129 -41 311 -119 300 -130 -2 -3 -16 0 -31 6 -15 5 -35 10 -44 10 -29 0 7
-18 53 -26 l40 -7 -50 -23 c-53 -24 -91 -51 -84 -58 283 -289 330 -345 419
-501 22 -40 22 -40 -21 10 -73 83 -259 278 -303 316 -105 93 -257 168 -406
200 l-85 19 110 -4 c78 -4 98 -2 70 4 -22 5 -76 9 -121 9 -44 1 -84 4 -87 7
-4 4 5 20 18 36 34 40 49 101 36 140 -6 17 -11 34 -11 38 0 12 46 1 197 -46z
m-813 -251 c20 -165 20 -160 -6 -166 -12 -4 -85 -7 -161 -7 -104 0 -145 4
-167 15 -17 9 -30 20 -30 25 0 12 46 56 93 87 20 14 37 27 37 30 0 8 -60 -28
-100 -62 -50 -42 -60 -36 -60 35 0 96 -13 90 200 90 l188 0 6 -47z m535 16
c14 -40 14 -85 0 -110 -10 -19 -12 -18 -57 19 -26 22 -58 44 -72 51 -18 9 -16
4 10 -16 19 -15 50 -42 70 -60 33 -30 34 -33 17 -50 -21 -22 -115 -28 -264
-18 l-105 7 6 67 c4 36 9 83 12 104 l6 37 183 0 183 0 11 -31z m-983 -1 c-3
-13 -6 -44 -6 -69 l0 -46 -97 4 c-73 4 -103 1 -116 -9 -15 -11 -2 -13 90 -10
84 3 112 0 128 -11 18 -14 16 -15 -35 -25 l-55 -10 70 -1 c59 -1 67 -3 55 -15
-8 -7 -37 -19 -64 -25 -68 -17 -161 -64 -239 -122 -78 -59 -360 -375 -459
-516 -38 -53 -68 -93 -68 -90 0 10 98 175 153 257 68 101 149 209 225 298 34
41 62 80 62 88 0 9 -21 24 -47 36 -41 18 -54 19 -102 11 -47 -9 -52 -8 -36 3
10 8 24 14 31 14 7 0 16 5 20 12 5 8 2 9 -12 4 -36 -14 38 55 113 104 85 56
179 95 288 120 107 24 109 24 101 -2z m1174 -5 c126 -29 282 -116 395 -219 22
-20 33 -32 25 -26 -9 6 -29 16 -44 22 -25 9 -27 8 -17 -3 9 -12 2 -15 -44 -19
-39 -3 -63 -11 -77 -25 -18 -19 -19 -22 -5 -50 9 -16 36 -52 61 -80 68 -76
204 -260 263 -357 29 -47 51 -86 49 -86 -2 0 -35 42 -74 93 -103 133 -393 424
-467 467 -32 19 -95 47 -138 62 -110 37 -117 48 -31 49 l69 1 -54 9 c-30 5
-56 11 -57 12 -2 2 4 23 12 47 10 29 13 60 9 87 l-6 43 33 -6 c18 -3 62 -13
98 -21z m-200 -284 c0 -49 -36 -101 -82 -116 -25 -8 -81 -10 -183 -6 l-148 6
7 66 c3 36 6 79 6 95 0 27 1 28 38 21 49 -10 285 -7 314 4 29 11 47 -17 48
-70z m-730 62 c47 -4 113 -4 148 2 35 5 66 6 70 3 3 -4 9 -47 12 -96 4 -66 2
-91 -7 -94 -28 -11 -310 -8 -331 3 -44 23 -76 124 -56 175 7 18 30 19 164 7z
m869 -31 c44 -17 107 -49 142 -71 72 -47 181 -148 173 -160 -3 -5 -20 -9 -38
-9 -19 0 -43 -9 -56 -20 l-23 -20 89 -115 c49 -64 110 -146 135 -183 47 -67
165 -282 156 -282 -3 0 -47 60 -98 133 -65 92 -133 172 -224 263 -135 136
-213 196 -318 244 l-62 29 50 1 50 2 -60 12 -60 11 22 20 c23 23 46 114 37
151 -3 13 -3 24 0 24 4 0 42 -14 85 -30z m-1099 -22 c0 -24 3 -53 6 -64 5 -21
2 -22 -88 -26 -67 -3 -107 -10 -142 -26 -65 -29 -54 -37 18 -12 31 10 90 22
130 26 63 6 78 4 100 -12 14 -11 26 -22 26 -26 0 -3 -24 -11 -52 -16 l-53 -10
50 -1 50 -2 -57 -23 c-95 -40 -167 -95 -304 -231 -102 -101 -157 -167 -249
-298 -65 -92 -120 -165 -122 -163 -2 2 19 50 48 107 56 113 125 217 267 404
l91 120 -26 14 c-16 8 -43 11 -72 8 -38 -4 -43 -3 -28 8 9 7 17 17 17 23 0 5
32 40 71 76 75 70 247 166 295 166 22 0 24 -4 24 -42z m478 -193 c4 -34 19
-47 45 -39 12 4 17 0 17 -15 0 -12 5 -21 10 -21 13 0 13 6 -2 47 -10 29 -10
36 2 44 8 5 26 6 40 3 14 -4 75 -6 135 -6 139 2 179 -6 183 -36 5 -35 -17 -92
-33 -86 -9 4 -12 0 -8 -14 10 -41 -23 -46 -336 -49 -296 -4 -345 1 -371 32
-25 31 87 123 170 140 19 4 40 11 45 15 12 10 53 18 80 16 14 -1 21 -9 23 -31z
m-158 16 c-46 -14 -92 -42 -137 -84 -43 -40 -46 -41 -59 -22 -8 10 -14 38 -14
61 l0 43 58 4 c111 7 178 6 152 -2z m-270 -61 c22 -84 24 -78 -22 -88 l-43
-10 51 -1 c31 -1 56 -7 63 -15 10 -12 2 -16 -46 -26 -32 -7 -65 -16 -73 -22
-12 -7 -11 -8 5 -4 11 3 43 8 70 11 l50 6 -81 -39 c-68 -33 -103 -61 -233
-185 -84 -80 -173 -171 -197 -204 -56 -73 -111 -182 -154 -301 -18 -51 -34
-91 -36 -89 -6 6 37 146 67 220 64 154 138 269 268 410 45 49 81 95 81 102 0
18 -20 32 -60 40 -19 5 -29 10 -21 13 10 3 10 6 1 12 -30 19 243 205 289 197
8 -1 18 -13 21 -27z m990 11 c56 -21 159 -92 208 -143 l32 -34 -27 -14 c-79
-40 -77 -56 14 -154 134 -142 237 -307 297 -474 39 -111 31 -110 -13 1 -54
135 -110 226 -190 305 -241 240 -314 300 -393 324 -21 6 -38 15 -38 20 0 8 39
5 95 -8 16 -4 17 -3 5 4 -8 6 -40 15 -71 22 l-57 13 28 44 c15 24 31 59 34 78
8 41 10 41 76 16z m-171 -198 c14 -48 14 -63 0 -102 -14 -41 -31 -39 -63 8
-15 21 -49 50 -76 65 -62 34 -65 27 -5 -11 49 -30 113 -110 99 -122 -27 -25
-91 -31 -303 -31 -230 0 -292 7 -319 34 -13 13 -11 19 18 56 18 22 56 54 84
70 28 17 45 30 37 30 -27 0 -96 -48 -129 -89 -27 -34 -37 -40 -48 -30 -18 14
-28 70 -20 112 l6 32 123 0 c96 0 120 -3 108 -12 -13 -9 -11 -10 12 -6 15 3
24 10 20 16 -4 7 54 8 188 4 107 -3 205 -2 219 3 14 4 28 8 32 9 4 1 12 -16
17 -36z m-785 -59 c11 -82 10 -84 -31 -86 -34 -1 -33 -2 11 -7 66 -8 70 -27 9
-36 -27 -3 -55 -11 -63 -16 -12 -8 -11 -9 5 -5 58 14 115 17 115 6 0 -7 -9
-14 -20 -17 -12 -3 -51 -20 -88 -38 -161 -77 -293 -259 -356 -490 -43 -161
-46 -168 -40 -105 16 160 73 334 136 417 14 18 63 73 110 121 l84 89 -42 12
c-24 7 -51 19 -61 27 -17 13 -14 18 41 68 54 49 144 105 172 106 6 0 14 -21
18 -46z m946 9 c43 -23 93 -64 133 -111 18 -20 18 -20 -2 -15 -15 4 -27 -2
-42 -21 -11 -14 -27 -26 -35 -26 -26 0 -14 -19 66 -104 90 -96 150 -183 179
-261 21 -56 56 -224 48 -231 -2 -3 -12 26 -21 63 -64 253 -218 451 -406 520
-65 24 -82 49 -26 39 93 -16 111 -17 97 -8 -8 6 -41 13 -72 17 -46 5 -56 10
-52 22 5 12 21 14 92 10 52 -4 74 -3 56 2 -16 5 -51 9 -78 10 l-47 1 6 43 c11
85 13 89 37 81 12 -3 42 -17 67 -31z m-200 -183 c0 -34 -21 -120 -31 -126 -6
-3 -37 19 -69 50 -32 31 -64 56 -72 56 -9 -1 -7 -5 5 -14 10 -8 42 -37 73 -66
50 -47 54 -54 40 -69 -13 -15 -44 -16 -265 -16 -220 0 -253 3 -267 17 -16 16
-13 20 41 70 32 29 65 58 74 65 12 9 12 12 3 13 -8 0 -39 -25 -71 -55 -32 -30
-61 -55 -65 -55 -13 0 -36 68 -36 105 l0 36 44 -6 c24 -4 70 -7 104 -8 33 -1
58 -5 56 -9 -3 -5 0 -8 5 -8 6 0 11 5 11 10 0 6 66 10 178 11 97 1 188 5 202
9 38 12 40 12 40 -10z m165 -50 c48 -23 116 -74 128 -95 6 -12 3 -12 -23 -1
-40 17 -141 5 -173 -21 -22 -17 -23 -21 -11 -44 7 -14 31 -38 53 -53 77 -54
159 -209 207 -394 13 -52 24 -99 24 -106 -1 -6 -23 44 -51 112 -93 231 -191
345 -341 395 -10 4 -18 15 -18 26 0 22 44 61 69 61 14 0 14 2 1 10 -12 7 -13
13 -4 27 10 15 24 18 80 16 51 -1 61 1 39 7 -16 4 -45 8 -62 9 -29 1 -33 4
-33 30 0 51 8 60 42 51 16 -5 49 -19 73 -30z m-863 5 c0 -14 1 -31 2 -37 1 -8
-18 -15 -49 -19 l-50 -6 57 -1 c49 -2 58 -5 64 -24 4 -13 2 -24 -5 -26 -19 -6
-12 -20 7 -15 13 3 28 -6 45 -27 15 -17 27 -35 27 -38 0 -4 -33 -22 -73 -41
-129 -61 -196 -149 -299 -396 -44 -106 -46 -101 -14 27 53 211 104 302 230
417 20 18 35 39 33 45 -2 6 -28 20 -59 30 -58 21 -53 21 -163 -18 -18 -7 -18
-6 -2 4 9 6 15 15 13 19 -10 15 101 93 162 116 56 21 72 19 74 -10z m624 -187
c12 -13 6 -66 -11 -96 -9 -15 -39 -43 -67 -62 -93 -64 -90 -54 -104 -357 -7
-148 -17 -461 -23 -698 -18 -672 -17 -660 -43 -696 l-23 -31 -2 144 c-3 159
-28 873 -44 1267 -6 140 -16 270 -22 290 -9 25 -26 45 -59 67 -64 42 -89 64
-100 93 -13 36 -1 79 25 84 36 8 465 3 473 -5z m-524 -83 l4 -35 -75 0 c-71 0
-74 1 -54 15 23 16 103 54 114 55 4 0 9 -16 11 -35z m640 4 c61 -31 56 -39
-22 -39 -62 0 -71 2 -66 16 3 9 6 25 6 35 0 23 17 20 82 -12z m-613 -86 c5
-21 12 -57 15 -80 6 -42 5 -43 -34 -63 -54 -27 -85 -63 -126 -142 -49 -97 -64
-171 -65 -333 -1 -166 -15 -139 -25 50 -7 131 8 242 46 331 26 60 107 180 138
205 22 17 22 19 6 19 -11 0 -32 9 -48 19 l-29 20 44 4 c24 2 49 4 56 5 7 1 16
-15 22 -35z m576 3 l-30 -24 51 -74 c106 -152 134 -244 133 -437 0 -69 -4
-146 -8 -171 -7 -39 -9 -33 -10 45 -3 208 -32 334 -100 435 -31 46 -43 56 -86
69 -27 8 -51 15 -52 16 -1 1 3 29 9 63 10 52 15 62 32 63 12 0 15 3 9 6 -7 2
-13 11 -13 19 0 10 13 14 48 14 l47 0 -30 -24z m-507 -53 c36 -22 72 -55 72
-65 0 -4 -18 -8 -41 -8 -36 0 -41 3 -55 35 -24 58 -20 65 24 38z m378 -59
c-12 -18 -25 -24 -51 -24 -57 0 -42 36 30 73 28 15 30 14 33 -4 2 -11 -4 -31
-12 -45z m-36 -98 c0 -19 -27 -46 -46 -46 -9 0 -14 11 -14 30 0 27 3 30 30 30
19 0 30 -5 30 -14z m136 -27 c72 -69 71 -154 -2 -302 l-48 -97 -14 45 c-20 70
-57 61 -86 -21 -14 -40 -18 -37 -30 19 -4 15 -13 27 -22 27 -14 0 -15 11 -9
83 8 93 10 98 30 91 10 -4 18 4 25 21 10 27 11 27 32 9 l22 -19 -17 27 c-18
28 -23 103 -9 112 5 3 25 -8 44 -24 40 -33 67 -98 69 -164 l2 -41 6 35 c14 74
-26 163 -89 195 -20 10 -27 20 -23 31 10 27 79 12 119 -27z m-476 16 c0 -8 -6
-15 -13 -15 -20 0 -74 -60 -91 -102 -17 -40 -20 -77 -10 -127 10 -49 19 -36
16 22 -5 80 12 129 59 171 42 39 59 39 59 3 0 -16 3 -18 9 -8 12 19 51 4 51
-20 0 -20 -24 -26 -35 -9 -9 15 -22 12 -29 -7 -3 -10 -10 -29 -16 -43 -9 -22
-8 -23 4 -7 18 23 22 22 34 -12 8 -22 15 -28 30 -24 17 4 20 -3 25 -69 5 -60
3 -74 -9 -81 -9 -5 -22 -23 -29 -40 l-13 -31 -21 42 c-26 52 -57 57 -74 12 -6
-17 -16 -29 -21 -27 -5 2 -29 41 -54 87 -41 79 -44 89 -40 147 5 72 26 108 79
135 43 22 89 24 89 3z m80 -10 c0 -15 -6 -25 -14 -25 -28 0 -46 12 -46 31 0
14 7 19 30 19 25 0 30 -4 30 -25z m240 -60 c0 -18 -5 -25 -20 -25 -35 0 -24
45 13 49 4 1 7 -10 7 -24z m-230 -66 c0 -23 -35 -26 -44 -3 -10 27 -7 31 19
26 16 -3 25 -11 25 -23z m220 2 c-14 -26 -40 -27 -40 -2 0 13 8 21 23 23 29 5
31 3 17 -21z m165 -966 c-36 -47 -101 -140 -146 -208 -45 -67 -86 -126 -90
-131 -5 -6 -9 48 -8 125 1 73 3 127 6 117 5 -20 27 -30 49 -21 13 5 15 15 10
49 -11 85 23 121 133 140 121 22 119 25 46 -71z m34 -148 l-22 -137 -78 0
c-44 0 -79 3 -79 6 0 15 190 277 196 271 3 -2 -5 -65 -17 -140z"/>
<path d="M3070 5609 c0 -5 5 -7 10 -4 6 3 10 8 10 11 0 2 -4 4 -10 4 -5 0 -10
-5 -10 -11z"/>
<path d="M3805 5295 c-16 -7 -23 -14 -14 -14 8 -1 24 6 35 14 24 18 18 18 -21
0z"/>
<path d="M3225 5290 c3 -5 11 -10 16 -10 6 0 7 5 4 10 -3 6 -11 10 -16 10 -6
0 -7 -4 -4 -10z"/>
<path d="M3708 5063 c-10 -2 -18 -9 -18 -14 0 -13 13 -11 36 6 19 14 14 17
-18 8z"/>
<path d="M3190 4795 c0 -2 15 -12 33 -21 17 -9 49 -30 70 -46 20 -16 37 -25
37 -19 0 12 -77 67 -114 81 -14 5 -26 7 -26 5z"/>
<path d="M3791 4770 c-62 -34 -81 -49 -81 -62 0 -5 14 2 31 17 18 14 49 35 70
46 22 11 39 22 39 24 0 7 -1 7 -59 -25z"/>
<path d="M4530 4460 c0 -5 5 -10 10 -10 6 0 10 5 10 10 0 6 -4 10 -10 10 -5 0
-10 -4 -10 -10z"/>
<path d="M2520 4030 c0 -13 11 -13 30 0 12 8 11 10 -7 10 -13 0 -23 -4 -23
-10z"/>
<path d="M4098 4153 c-48 -12 -5 -18 119 -14 86 2 130 6 118 11 -21 9 -207 11
-237 3z"/>
<path d="M4361 4145 c9 -9 112 -35 117 -30 3 2 -6 8 -19 13 -33 13 -105 25
-98 17z"/>
<path d="M2615 3893 c-49 -7 -107 -24 -102 -30 8 -8 147 19 147 29 0 4 -3 7
-7 7 -5 -1 -21 -4 -38 -6z"/>
<path d="M2780 3891 c63 -5 131 -11 150 -16 29 -6 33 -5 22 6 -10 10 -49 14
-150 15 l-137 2 115 -7z"/>
<path d="M4103 3890 c-13 -5 -23 -12 -23 -15 0 -4 10 -3 23 1 12 4 76 10 142
14 l120 7 -120 1 c-66 0 -130 -3 -142 -8z"/>
<path d="M4373 3892 c4 -5 25 -12 47 -14 49 -4 39 8 -14 18 -26 4 -37 3 -33
-4z"/>
<path d="M3352 3770 c-48 -11 -54 -24 -7 -17 22 4 48 7 58 7 9 0 17 5 17 10 0
11 -20 11 -68 0z"/>
<path d="M3620 3772 c0 -9 58 -22 95 -21 l20 0 -20 8 c-36 14 -95 22 -95 13z"/>
<path d="M4081 3641 c-10 -6 14 -9 65 -8 43 0 95 -2 114 -6 l35 -7 -30 15
c-33 16 -162 20 -184 6z"/>
<path d="M4300 3617 c0 -3 20 -12 45 -20 45 -16 65 -14 23 2 -43 16 -68 22
-68 18z"/>
<path d="M3885 3420 c20 -22 31 -20 22 5 -4 8 -14 15 -23 15 -16 0 -16 -2 1
-20z"/>
<path d="M4035 3390 c-15 -7 -10 -9 25 -10 25 0 74 -7 110 -14 74 -16 89 -13
39 8 -44 17 -148 27 -174 16z"/>
<path d="M4250 3255 c33 -19 50 -18 26 0 -11 8 -27 15 -35 15 -10 -1 -7 -6 9
-15z"/>
<path d="M2760 3255 c-16 -19 -3 -19 30 0 24 13 24 14 4 15 -12 0 -27 -7 -34
-15z"/>
<path d="M3461 3224 c0 -11 3 -14 6 -6 3 7 2 16 -1 19 -3 4 -6 -2 -5 -13z"/>
<path d="M3485 3190 c3 -5 17 -10 31 -10 13 0 24 5 24 10 0 6 -14 10 -31 10
-17 0 -28 -4 -24 -10z"/>
<path d="M2878 3049 c-31 -17 -19 -30 12 -14 17 9 30 18 30 20 0 8 -24 5 -42
-6z"/>
<path d="M3961 3146 c3 -3 40 -9 82 -14 48 -5 74 -5 68 1 -10 10 -160 24 -150
13z"/>
<path d="M4221 3096 c2 -2 15 -9 29 -15 24 -11 24 -11 6 3 -16 13 -49 24 -35
12z"/>
<path d="M4120 3055 c0 -2 14 -11 30 -20 17 -9 30 -12 30 -7 0 5 -11 14 -25
20 -28 13 -35 14 -35 7z"/>
<path d="M3625 3060 c28 -12 37 -12 30 0 -3 6 -16 10 -28 9 -21 0 -21 -1 -2
-9z"/>
<path d="M3476 3028 c-13 -19 -14 -25 -2 -43 16 -23 61 -32 82 -14 20 17 17
56 -5 69 -31 16 -59 12 -75 -12z m58 6 c20 -8 21 -50 1 -58 -37 -14 -69 29
-39 51 21 15 18 15 38 7z"/>
<path d="M3492 2798 c-32 -32 2 -79 43 -60 29 13 32 34 9 56 -19 19 -36 20
-52 4z m42 -24 c9 -23 8 -24 -14 -24 -19 0 -27 20 -13 33 11 11 20 8 27 -9z"/>
<path d="M3700 1990 c0 -32 4 -49 10 -45 6 3 10 24 10 45 0 21 -4 42 -10 45
-6 4 -10 -13 -10 -45z"/>
<path d="M3316 2018 c-5 -16 -5 -40 0 -55 l8 -28 4 28 c2 15 2 39 0 55 l-4 27
-8 -27z"/>
<path d="M5655 5556 c-16 -8 -43 -28 -59 -45 l-30 -31 38 -39 39 -40 27 21
c16 11 40 21 55 21 38 0 75 -39 75 -79 0 -62 -53 -68 -240 -29 -66 14 -126 28
-133 30 -7 3 -29 -10 -51 -28 l-38 -33 101 -128 c56 -70 101 -134 101 -141 0
-8 10 -25 23 -40 l22 -25 98 56 c86 49 96 57 87 74 -6 10 -15 22 -20 25 -5 3
-14 14 -19 24 -9 16 -5 17 44 13 68 -6 135 24 165 74 26 40 29 124 7 176 -48
115 -194 187 -292 144z m161 -61 c65 -38 98 -94 99 -165 0 -69 -25 -104 -87
-121 -47 -12 -85 -6 -210 34 -54 17 -100 28 -104 24 -8 -8 100 -143 126 -157
11 -6 32 -8 47 -5 l28 6 -35 -31 c-44 -38 -79 -49 -92 -27 -5 9 -49 67 -98
129 -115 145 -113 147 84 105 154 -32 195 -32 240 4 36 29 43 77 16 128 -29
58 -75 79 -136 63 -71 -19 -85 5 -20 34 40 18 87 11 142 -21z m-117 -325 c9
-5 5 -9 -14 -14 -22 -6 -33 -2 -49 14 l-21 22 35 -7 c19 -4 41 -11 49 -15z"/>
<path d="M1076 5263 c-43 -58 -79 -111 -82 -117 -2 -6 13 -22 34 -36 52 -35
53 -35 71 -12 16 21 17 20 138 -66 121 -86 126 -92 109 -133 -5 -11 5 -24 32
-42 21 -15 42 -27 48 -27 9 0 209 274 228 312 7 14 -4 37 -50 104 -32 47 -63
88 -67 91 -9 6 -87 -43 -87 -55 0 -5 9 -27 20 -50 24 -49 25 -83 5 -123 -18
-34 -7 -40 -153 66 -104 75 -109 81 -96 99 20 29 19 32 -29 65 l-44 30 -77
-106z m100 9 c-9 -37 0 -46 129 -139 148 -107 152 -109 177 -86 46 41 65 132
39 181 -13 25 -14 52 -2 52 11 0 93 -118 89 -129 -2 -4 -43 -65 -93 -134 -90
-127 -123 -155 -110 -97 5 24 2 34 -18 52 -49 45 -255 188 -271 188 -9 0 -25
-5 -36 -12 -39 -25 -31 3 21 76 57 79 85 98 75 48z"/>
<path d="M1003 4990 c-122 -25 -212 -136 -221 -275 -5 -88 21 -157 80 -211 63
-57 121 -79 208 -79 64 0 82 4 122 27 118 70 180 217 144 342 -39 132 -194
223 -333 196z m183 -75 c125 -78 151 -223 62 -352 -138 -203 -468 -58 -419
185 17 86 59 142 137 182 60 31 156 24 220 -15z"/>
<path d="M933 4850 c-113 -69 -61 -232 92 -290 17 -7 55 -12 86 -13 70 -2 104
19 131 80 17 39 19 52 9 84 -17 55 -53 94 -123 128 -74 37 -146 42 -195 11z
m172 -49 c22 -10 55 -34 73 -55 42 -48 43 -87 3 -127 -37 -37 -86 -38 -156 -5
-85 40 -124 99 -103 157 20 59 91 70 183 30z"/>
<path d="M670 4517 c0 -1 -13 -49 -30 -107 -16 -58 -30 -108 -30 -111 0 -6 78
-29 98 -29 5 0 13 9 18 19 8 17 17 14 98 -45 l89 -64 -39 0 c-21 0 -69 -3
-106 -7 -67 -6 -68 -6 -68 19 0 20 -8 27 -50 40 -27 9 -52 13 -54 10 -2 -4
-18 -56 -36 -117 -17 -60 -33 -117 -36 -127 -4 -12 7 -20 48 -32 29 -8 54 -12
56 -8 11 31 27 35 238 54 121 12 223 24 227 28 4 4 16 34 26 68 l19 61 -184
138 c-140 105 -184 143 -186 161 -2 20 -12 28 -48 38 -49 15 -50 15 -50 11z
m65 -87 c3 -11 82 -75 175 -144 170 -126 177 -133 164 -183 -8 -27 -14 -29
-229 -48 -99 -9 -197 -23 -219 -31 -21 -8 -41 -12 -44 -10 -10 11 41 176 54
176 8 0 14 -8 14 -19 0 -40 21 -44 193 -37 89 4 166 11 170 15 11 11 -256 201
-281 201 -11 0 -25 -7 -32 -15 -33 -40 -39 -1 -13 81 13 42 19 51 29 43 7 -6
16 -19 19 -29z"/>
<path d="M812 3873 c-20 -45 -20 -49 -4 -58 9 -5 34 -26 54 -46 36 -35 38 -40
38 -98 l0 -61 -51 0 c-59 0 -65 22 -8 30 33 5 34 6 37 56 l3 51 -112 13 -112
13 36 19 c21 10 37 21 37 24 0 29 -25 94 -37 94 -7 0 -52 -10 -98 -21 -81 -20
-85 -23 -90 -53 -14 -82 -45 -399 -40 -407 4 -5 28 -9 55 -9 45 0 50 3 56 25
7 29 -6 29 219 1 87 -11 90 -12 93 -37 3 -29 23 -39 80 -39 19 0 32 5 32 13 0
6 11 109 25 227 13 118 23 214 22 215 -1 0 -46 21 -100 48 -53 26 -101 47
-106 47 -5 0 -18 -21 -29 -47z m-132 -25 c0 -7 -15 -20 -33 -28 -40 -20 -73
-85 -81 -162 -7 -65 -12 -61 96 -73 55 -6 58 -5 63 18 12 47 2 81 -30 97 l-30
15 30 3 c42 5 135 -8 135 -19 0 -5 -6 -9 -14 -9 -28 0 -55 -35 -58 -75 l-3
-40 78 -8 c54 -6 82 -5 91 2 19 16 30 130 16 166 -6 17 -30 49 -52 72 -23 24
-39 46 -35 50 6 6 118 -40 140 -58 8 -6 -28 -368 -38 -377 -7 -7 -25 9 -25 23
0 24 -33 34 -166 50 -184 21 -198 20 -222 -12 -11 -16 -24 -25 -27 -21 -9 8
24 336 36 358 13 26 129 51 129 28z m1 -211 c-5 -5 -21 -7 -37 -5 -23 2 -30 9
-32 30 l-3 27 40 -22 c22 -12 36 -26 32 -30z"/>
<path d="M6138 3534 c-98 -30 -106 -147 -12 -170 36 -9 307 23 355 42 70 29
58 81 -24 103 -23 5 -85 15 -137 21 -52 6 -104 12 -115 14 -11 2 -41 -2 -67
-10z m184 -49 c57 -9 114 -21 128 -27 25 -10 25 -10 4 -18 -44 -17 -274 -40
-299 -30 -32 12 -41 34 -27 66 14 30 45 31 194 9z"/>
<path d="M790 3054 c0 -36 36 -212 65 -314 136 -485 373 -882 736 -1235 394
-382 872 -628 1413 -725 126 -23 186 -26 169 -9 -6 6 -69 21 -140 34 -377 66
-725 205 -1041 415 -175 117 -301 221 -437 361 -376 388 -625 866 -721 1382
-8 45 -17 90 -20 100 -8 26 -24 20 -24 -9z"/>
<path d="M5689 2055 c-53 -29 -62 -120 -16 -150 67 -42 167 1 167 73 0 44 -9
61 -41 77 -35 19 -76 18 -110 0z m75 -41 c30 -29 17 -84 -20 -84 -37 0 -59 61
-32 88 16 16 33 15 52 -4z"/>
<path d="M4619 1125 c-19 -10 -29 -28 -39 -69 -13 -55 -13 -55 -54 -58 -29 -2
-42 -8 -44 -20 -3 -15 4 -18 32 -18 20 0 36 -4 36 -9 0 -6 -16 -74 -35 -152
-40 -164 -42 -188 -16 -220 18 -23 19 -23 62 -6 49 19 179 111 179 127 0 16
-17 12 -67 -19 -27 -16 -60 -33 -75 -36 -26 -7 -28 -5 -28 21 0 16 15 88 33
159 l33 130 54 5 c42 4 56 9 58 23 3 14 -4 17 -47 17 -57 0 -57 -2 -37 83 13
52 13 57 -2 57 -10 -1 -29 -7 -43 -15z"/>
<path d="M4301 983 c-55 -58 -72 -72 -67 -53 3 14 9 43 13 64 l6 39 -37 -6
c-48 -8 -121 -51 -142 -83 -23 -34 -12 -39 22 -11 39 31 64 40 64 22 0 -8 -18
-87 -40 -176 -50 -204 -50 -201 -3 -197 l37 3 27 113 c41 167 83 229 191 276
65 29 73 38 58 66 -20 38 -51 24 -129 -57z"/>
</g>
</svg>
